<?xml version="1.0" encoding="utf-8"?>
<!-- Generator: Adobe Illustrator 25.4.1, SVG Export Plug-In . SVG Version: 6.00 Build 0)  -->
<svg version="1.2" baseProfile="tiny" id="Capa_1" xmlns="http://www.w3.org/2000/svg" xmlns:xlink="http://www.w3.org/1999/xlink"
	 x="0px" y="0px" viewBox="0 0 250 122.6" overflow="visible" xml:space="preserve">
<g>
	<polygon fill="#FFFFFF" points="90.3,26.9 90.3,0 24,0 24,40.6 15.9,40.6 0,67.7 24,67.7 24,122.6 51,122.6 51,67.7 75.9,67.7 
		75.9,40.6 51,40.6 51,26.9 	"/>
	<path fill="#FFFFFF" d="M152.4,57.4l-17.1,26H179c-1.9,2.2-4,4.3-6.5,6.1c-6.1,4.6-13.1,6.9-21.1,6.9c-6.4,0-12.1-1.6-17.6-4.7
		c-5.5-3.2-9.7-7.4-12.9-12.9c-3.2-5.4-4.7-11.2-4.7-17.7c0-6.2,1.6-12.1,4.8-17.6c3.2-5.6,7.3-9.8,12.8-12.9
		c5.5-3.2,11.2-4.7,17.6-4.7c3.9,0,7.8,0.6,11.2,1.7c3.5,1.2,6.8,2.8,9.9,5.1s5.6,4.7,7.4,7.4l5.1,7.2l21.1-14.8l-5.1-7.3
		c-5.6-7.8-12.8-14.1-21.4-18.6C170.9,2.3,161.4,0,151.4,0c-8.1,0-16.1,1.5-23.4,4.6c-7.4,3.1-14.1,7.5-19.8,13.2
		c-5.7,5.7-10.2,12.3-13.2,19.8s-4.7,15.4-4.7,23.6c0,11.1,2.8,21.6,8.2,30.9c5.4,9.3,12.9,16.8,22.1,22.2
		c9.3,5.5,19.7,8.2,30.8,8.2c10.6,0,20.6-2.4,29.4-7.3c8.9-4.9,16.1-11.6,21.8-19.9s8.9-17.9,9.8-28.1l0.9-9.8L152.4,57.4
		L152.4,57.4z"/>
	<g>
		<g>
			<path fill="#FFFFFF" d="M222.6,82.4H250v26.9h-13.7V95.6h-13.7V82.4z"/>
		</g>
		<g>
			<path fill="#FFFFFF" d="M236.3,122.6h-27.4V95.6h13.7v13.7h13.7V122.6z"/>
		</g>
	</g>
</g>
</svg>
