<?xml version="1.0" encoding="utf-8"?>
<!-- Generator: Adobe Illustrator 27.8.0, SVG Export Plug-In . SVG Version: 6.00 Build 0)  -->
<svg version="1.1" id="Capa_1" xmlns="http://www.w3.org/2000/svg" xmlns:xlink="http://www.w3.org/1999/xlink" x="0px" y="0px"
	 viewBox="0 0 48 48" style="enable-background:new 0 0 48 48;" xml:space="preserve">
<style type="text/css">
	.st0{fill:#FFFFFF;}
</style>
<rect width="48" height="48"/>
<g>
	<polygon class="st0" points="19.31,19.51 19.31,16 10.35,16 10.35,21.3 9.27,21.3 7.11,24.84 10.35,24.84 10.35,32 13.99,32 
		13.99,24.84 17.36,24.84 17.36,21.3 13.99,21.3 13.99,19.51 	"/>
	<path class="st0" d="M27.71,23.49l-2.3,3.4h5.91c-0.25,0.29-0.54,0.56-0.88,0.8c-0.83,0.6-1.77,0.9-2.85,0.9
		c-0.86,0-1.63-0.2-2.37-0.62c-0.74-0.41-1.31-0.96-1.74-1.68c-0.43-0.71-0.64-1.47-0.64-2.31c0-0.82,0.21-1.57,0.64-2.3
		c0.43-0.72,0.99-1.27,1.73-1.68c0.74-0.41,1.52-0.61,2.38-0.61c0.54,0,1.05,0.07,1.51,0.22c0.47,0.15,0.92,0.37,1.33,0.66
		c0.41,0.29,0.75,0.62,1.01,0.96l0.7,0.94l2.85-1.94l-0.7-0.95c-0.75-1.03-1.72-1.84-2.9-2.42C30.22,16.29,28.94,16,27.58,16
		c-1.1,0-2.17,0.2-3.17,0.6c-1.01,0.4-1.91,0.98-2.68,1.72c-0.77,0.74-1.37,1.61-1.79,2.59c-0.42,0.98-0.63,2.01-0.63,3.07
		c0,1.45,0.38,2.81,1.12,4.03c0.74,1.21,1.74,2.19,2.99,2.9c1.26,0.72,2.66,1.08,4.16,1.08c1.44,0,2.78-0.32,3.98-0.95
		c1.2-0.63,2.18-1.5,2.94-2.6c0.76-1.1,1.2-2.33,1.33-3.67l0.12-1.27H27.71z"/>
	<g>
		<g>
			<path class="st0" d="M37.18,26.74l3.7,0v3.52h-1.85v-1.79h-1.85L37.18,26.74z"/>
		</g>
		<g>
			<path class="st0" d="M39.04,31.99l-3.7,0v-3.52l1.85,0v1.79l1.85,0V31.99z"/>
		</g>
	</g>
</g>
</svg>
